<?xml version="1.0" encoding="UTF-8"?>
<svg width="38px" height="32px" viewBox="0 0 38 32" version="1.1" xmlns="http://www.w3.org/2000/svg" xmlns:xlink="http://www.w3.org/1999/xlink">
    <!-- Generator: Sketch 48.1 (47250) - http://www.bohemiancoding.com/sketch -->
    <title>Shape</title>
    <desc>Created with Sketch.</desc>
    <defs></defs>
    <g id="Page-1" stroke="none" stroke-width="1" fill="none" fill-rule="evenodd">
        <g id="github-mascot-logo-variant" transform="translate(-21.000000, -24.000000)" fill="#FFFFFF" fill-rule="nonzero">
            <path d="M35.5695044,45.9690837 C35.5695044,48.434499 34.2593706,50.4359921 32.6423493,50.4359921 C31.0232889,50.4359921 29.713155,48.434499 29.713155,45.9690837 C29.713155,43.5006096 31.0232889,41.5011558 32.6423493,41.5011558 C34.2593706,41.5021754 35.5695044,43.5016292 35.5695044,45.9690837 Z M47.1404846,41.5021754 C45.5214242,41.5021754 44.2112903,43.5016292 44.2112903,45.9701033 C44.2112903,48.4355186 45.5214242,50.4370117 47.1404846,50.4370117 C48.7575058,50.4370117 50.0676397,48.4355186 50.0676397,45.9701033 C50.0676397,43.5016292 48.7575058,41.5021754 47.1404846,41.5021754 Z M59,41.685705 C59,49.5917556 54.9737598,56 44.3234418,56 L35.6765582,56 C24.6602184,56 21,49.5917556 21,41.685705 C21,38.3862493 22.1449653,35.3488332 24.0678544,32.9272612 C22.6047866,27.3989395 24.7835851,24.0005817 24.7835851,24.0005817 C28.0278232,23.9618366 30.9264307,25.8654471 32.9104934,27.6263124 C33.8066862,27.4590965 34.7314266,27.3714101 35.6785973,27.3714101 L44.3234418,27.3714101 C45.3073167,27.3714101 46.2657026,27.4662337 47.1914625,27.645685 C49.1734861,25.8827805 52.0863674,23.9648954 55.3367229,24.002621 C55.3367229,24.002621 55.338762,24.0066994 55.3428403,24.012817 C55.3428403,24.012817 55.3428403,24.012817 55.3448794,24.0148563 C55.3479381,24.0209739 55.3560946,24.03117 55.364251,24.0413661 C55.364251,24.0423857 55.364251,24.0444249 55.3662901,24.0464642 C55.3815835,24.0709348 55.4019747,24.1096799 55.4295028,24.1596408 C55.4295028,24.1606604 55.4295028,24.16168 55.4325615,24.1637192 C55.4468353,24.1871702 55.4590701,24.2177585 55.4784417,24.2483468 C55.4804808,24.250386 55.4804808,24.2514056 55.4804808,24.2524252 C55.9392826,25.1364265 57.3126291,28.3257644 56.0249255,33.0455358 C57.893778,35.4467157 59,38.4382494 59,41.685705 Z M53.9980414,45.7447697 C53.4627727,41.8967642 51.9803332,38.8042892 47.8470393,39.0377797 C45.5469131,39.1713485 42.4923131,39.838173 39.4519868,39.8657024 C36.8684232,39.8891535 34.2828204,39.2947212 32.3262859,39.1825642 C28.1929919,38.9490737 26.7105524,41.8926857 26.1773229,45.7447697 C25.6410346,49.5856379 28.0186472,53.2297215 32.7789702,53.4988984 C37.5739583,53.7752125 42.3822006,53.7752125 47.1802474,53.4988984 C51.9375117,53.2287019 54.5343296,49.5835987 53.9980414,45.7447697 Z" id="Shape"></path>
        </g>
    </g>
</svg>