<?xml version="1.0" encoding="UTF-8"?>
<svg width="39px" height="34px" viewBox="0 0 39 34" version="1.1" xmlns="http://www.w3.org/2000/svg" xmlns:xlink="http://www.w3.org/1999/xlink">
    <!-- Generator: Sketch 48.1 (47250) - http://www.bohemiancoding.com/sketch -->
    <title>sina-weibo</title>
    <desc>Created with Sketch.</desc>
    <defs></defs>
    <g id="Page-1" stroke="none" stroke-width="1" fill="none" fill-rule="evenodd">
        <g id="sina-weibo" fill="#FFFFFF" fill-rule="nonzero">
            <path d="M28.6871457,17.134814 C28.1489849,16.9699535 27.7801508,16.856093 28.0615779,16.1310233 C28.6710754,14.5555581 28.7349648,13.1967442 28.0737286,12.2273488 C26.8335678,10.4087442 23.4415477,10.5063953 19.5544824,12.1787209 C19.5544824,12.1767442 18.3331357,12.7270698 18.6451357,11.7323721 C19.2432663,9.758 19.1523317,8.10544186 18.222603,7.15067442 C16.1138593,4.98376744 10.5045226,7.23290698 5.69282412,12.1700233 C2.09071357,15.868907 0,19.7895814 0,23.1793023 C0,29.6626279 8.09788945,34 16.0209648,34 C26.4067236,34 33.3165829,27.4095349 33.3165829,22.491 C33.3165829,19.5183721 30.878201,17.831814 28.6871457,17.134814 Z M16.0425226,31.093 C9.72021106,31.7247674 4.26373869,28.8280465 3.85257286,24.617186 C3.44219095,20.4083023 8.23546734,16.4816977 14.556995,15.8479535 C20.8796985,15.2130233 26.3373467,18.1121163 26.7469447,22.321 C27.1561508,26.5318605 22.3660101,30.4588605 16.0425226,31.093 Z M39,11.8553256 C38.9968643,5.30755814 33.7340201,0 27.241206,0 C26.4831558,0 25.8693467,0.619511628 25.8693467,1.38372093 C25.8693467,2.14832558 26.4831558,2.76744186 27.241206,2.76744186 C32.2202714,2.76744186 36.2562814,6.83874419 36.2562814,11.8604651 C36.2562814,12.6250698 36.8708744,13.244186 37.6281407,13.244186 C38.386191,13.244186 39,12.6250698 39,11.8604651 C39,11.8604651 39,11.8573023 39,11.8553256 Z M33.5490151,11.6521163 C32.9222714,8.56483721 30.5093668,6.13146512 27.4481608,5.49890698 C26.7069648,5.34511628 25.9814472,5.82704651 25.8293668,6.57544186 C25.6765025,7.32383721 26.1543015,8.05483721 26.8954975,8.2094186 C28.8858693,8.6205814 30.4544925,10.2015814 30.8617387,12.2091628 C31.014995,12.9575581 31.7397286,13.439093 32.4817085,13.2856977 C33.2232965,13.1311163 33.7007035,12.4001163 33.5490151,11.6521163 Z M12.7998392,19.9706512 C10.2528844,20.4869767 8.53453266,22.6412326 8.96098492,24.7816512 C9.38704523,26.9224651 11.797598,28.2389767 14.3445528,27.7222558 C16.8907236,27.2059302 18.6098593,25.0524651 18.1830151,22.9112558 C17.7573467,20.7712326 15.3460101,19.4543256 12.7998392,19.9706512 Z" id="Shape"></path>
        </g>
    </g>
</svg>